<?xml version="1.0" encoding="UTF-8" standalone="no" ?>
<!DOCTYPE svg PUBLIC "-//W3C//DTD SVG 1.1//EN" "http://www.w3.org/Graphics/SVG/1.1/DTD/svg11.dtd">
<svg xmlns="http://www.w3.org/2000/svg" xmlns:xlink="http://www.w3.org/1999/xlink" version="1.1" width="1080" height="1080" viewBox="0 0 1080 1080" xml:space="preserve">
<desc>Created with Fabric.js 5.2.4</desc>
<defs>
</defs>
<g transform="matrix(1 0 0 1 540 540)" id="9539a404-2f40-4522-b843-43e84fca2c0d"  >
</g>
<g transform="matrix(1 0 0 1 540 540)" id="9e028cd6-5357-465b-9e07-e3e819f28dfd"  >
<rect style="stroke: none; stroke-width: 1; stroke-dasharray: none; stroke-linecap: butt; stroke-dashoffset: 0; stroke-linejoin: miter; stroke-miterlimit: 4; fill: rgb(255,255,255); fill-rule: nonzero; opacity: 1; visibility: hidden;" vector-effect="non-scaling-stroke"  x="-540" y="-540" rx="0" ry="0" width="1080" height="1080" />
</g>
<g transform="matrix(0 0 0 0 0 0)"  >
<g style=""   >
</g>
</g>
<g transform="matrix(0 0 0 0 0 0)"  >
<g style=""   >
</g>
</g>
<g transform="matrix(0 0 0 0 0 0)"  >
<g style=""   >
</g>
</g>
<g transform="matrix(0 0 0 0 0 0)"  >
<g style=""   >
</g>
</g>
<g transform="matrix(0 0 0 0 0 0)"  >
<g style=""   >
</g>
</g>
<g transform="matrix(0 0 0 0 0 0)"  >
<g style=""   >
</g>
</g>
<g transform="matrix(1 0 0 1 540 540)"  >
<g style="" vector-effect="non-scaling-stroke"   >
		<g transform="matrix(1 0 0 1 0 0)"  >
<path style="stroke: rgb(0,0,0); stroke-width: 32; stroke-dasharray: none; stroke-linecap: round; stroke-dashoffset: 0; stroke-linejoin: round; stroke-miterlimit: 4; fill: none; fill-rule: nonzero; opacity: 1;" vector-effect="non-scaling-stroke"  transform=" translate(-256, -256)" d="M 32 32 L 32 464 C 32 472.8365559972927 39.16344400270731 480 48 480 L 480 480" stroke-linecap="round" />
</g>
		<g transform="matrix(1 0 0 1 -120 64)"  >
<rect style="stroke: rgb(0,0,0); stroke-width: 32; stroke-dasharray: none; stroke-linecap: round; stroke-dashoffset: 0; stroke-linejoin: round; stroke-miterlimit: 4; fill: none; fill-rule: nonzero; opacity: 1;" vector-effect="non-scaling-stroke"  x="-40" y="-96" rx="20" ry="20" width="80" height="192" />
</g>
		<g transform="matrix(1 0 0 1 24 40)"  >
<rect style="stroke: rgb(0,0,0); stroke-width: 32; stroke-dasharray: none; stroke-linecap: round; stroke-dashoffset: 0; stroke-linejoin: round; stroke-miterlimit: 4; fill: none; fill-rule: nonzero; opacity: 1;" vector-effect="non-scaling-stroke"  x="-40" y="-120" rx="20" ry="20" width="80" height="240" />
</g>
		<g transform="matrix(1 0 0 1 167.64 8)"  >
<rect style="stroke: rgb(0,0,0); stroke-width: 32; stroke-dasharray: none; stroke-linecap: round; stroke-dashoffset: 0; stroke-linejoin: round; stroke-miterlimit: 4; fill: none; fill-rule: nonzero; opacity: 1;" vector-effect="non-scaling-stroke"  x="-40" y="-152" rx="20" ry="20" width="80" height="304" />
</g>
</g>
</g>
<g transform="matrix(0.55 0 0 0.55 492.82 275.47)"  >
<g style="" vector-effect="non-scaling-stroke"   >
		<g transform="matrix(1 0 0 1 -0.01 -112)"  >
<path style="stroke: rgb(0,0,0); stroke-width: 32; stroke-dasharray: none; stroke-linecap: round; stroke-dashoffset: 0; stroke-linejoin: round; stroke-miterlimit: 4; fill: none; fill-rule: nonzero; opacity: 1;" vector-effect="non-scaling-stroke"  transform=" translate(-256, -144)" d="M 344 144 C 340.08 196.87 300 240 256 240 C 212 240 171.85 196.88 168 144 C 164 89 203 48 256 48 C 309 48 348 90 344 144 z" stroke-linecap="round" />
</g>
		<g transform="matrix(1 0 0 1 0 128)"  >
<path style="stroke: rgb(0,0,0); stroke-width: 32; stroke-dasharray: none; stroke-linecap: butt; stroke-dashoffset: 0; stroke-linejoin: miter; stroke-miterlimit: 10; fill: none; fill-rule: nonzero; opacity: 1;" vector-effect="non-scaling-stroke"  transform=" translate(-256, -384)" d="M 256 304 C 169 304 80.69999999999999 352 64.36000000000001 442.6 C 62.39 453.52 68.57 464 80 464 L 432 464 C 443.44 464 449.62 453.52 447.65 442.6 C 431.3 352 343 304 256 304 z" stroke-linecap="round" />
</g>
</g>
</g>
</svg>