<?xml version="1.0" encoding="UTF-8" standalone="no" ?>
<!DOCTYPE svg PUBLIC "-//W3C//DTD SVG 1.1//EN" "http://www.w3.org/Graphics/SVG/1.1/DTD/svg11.dtd">
<svg xmlns="http://www.w3.org/2000/svg" xmlns:xlink="http://www.w3.org/1999/xlink" version="1.1" width="1080" height="1080" viewBox="0 0 1080 1080" xml:space="preserve">
<desc>Created with Fabric.js 5.2.4</desc>
<defs>
</defs>
<rect x="0" y="0" width="100%" height="100%" fill="transparent"></rect>
<g transform="matrix(1 0 0 1 540 540)" id="9e028cd6-5357-465b-9e07-e3e819f28dfd"  >
<rect style="stroke: none; stroke-width: 1; stroke-dasharray: none; stroke-linecap: butt; stroke-dashoffset: 0; stroke-linejoin: miter; stroke-miterlimit: 4; fill: rgb(255,255,255); fill-rule: nonzero; opacity: 1; visibility: hidden;" vector-effect="non-scaling-stroke"  x="-540" y="-540" rx="0" ry="0" width="1080" height="1080" />
</g>
<g transform="matrix(1 0 0 1 540 540)" id="9539a404-2f40-4522-b843-43e84fca2c0d"  >
</g>
<g transform="matrix(0 0 0 0 0 0)"  >
<g style=""   >
</g>
</g>
<g transform="matrix(0 0 0 0 0 0)"  >
<g style=""   >
</g>
</g>
<g transform="matrix(0 0 0 0 0 0)"  >
<g style=""   >
</g>
</g>
<g transform="matrix(0 0 0 0 0 0)"  >
<g style=""   >
</g>
</g>
<g transform="matrix(0 0 0 0 0 0)"  >
<g style=""   >
</g>
</g>
<g transform="matrix(0 0 0 0 0 0)"  >
<g style=""   >
</g>
</g>
<g transform="matrix(1 0 0 1 540 540)"  >
<g style="" vector-effect="non-scaling-stroke"   >
		<g transform="matrix(1 0 0 1 0 0)"  >
<path style="stroke: rgb(0,0,0); stroke-width: 32; stroke-dasharray: none; stroke-linecap: round; stroke-dashoffset: 0; stroke-linejoin: round; stroke-miterlimit: 4; fill: none; fill-rule: nonzero; opacity: 1;" vector-effect="non-scaling-stroke"  transform=" translate(-256, -256)" d="M 32 32 L 32 464 C 32 472.8365559972927 39.16344400270731 480 48 480 L 480 480" stroke-linecap="round" />
</g>
		<g transform="matrix(1 0 0 1 -120 64)"  >
<rect style="stroke: rgb(0,0,0); stroke-width: 32; stroke-dasharray: none; stroke-linecap: round; stroke-dashoffset: 0; stroke-linejoin: round; stroke-miterlimit: 4; fill: none; fill-rule: nonzero; opacity: 1;" vector-effect="non-scaling-stroke"  x="-40" y="-96" rx="20" ry="20" width="80" height="192" />
</g>
		<g transform="matrix(1 0 0 1 24 40)"  >
<rect style="stroke: rgb(0,0,0); stroke-width: 32; stroke-dasharray: none; stroke-linecap: round; stroke-dashoffset: 0; stroke-linejoin: round; stroke-miterlimit: 4; fill: none; fill-rule: nonzero; opacity: 1;" vector-effect="non-scaling-stroke"  x="-40" y="-120" rx="20" ry="20" width="80" height="240" />
</g>
		<g transform="matrix(1 0 0 1 167.64 8)"  >
<rect style="stroke: rgb(0,0,0); stroke-width: 32; stroke-dasharray: none; stroke-linecap: round; stroke-dashoffset: 0; stroke-linejoin: round; stroke-miterlimit: 4; fill: none; fill-rule: nonzero; opacity: 1;" vector-effect="non-scaling-stroke"  x="-40" y="-152" rx="20" ry="20" width="80" height="304" />
</g>
</g>
</g>
<g transform="matrix(0.58 0 0 0.58 503.73 288.35)"  >
<path style="stroke: rgb(0,0,0); stroke-width: 0; stroke-dasharray: none; stroke-linecap: butt; stroke-dashoffset: 0; stroke-linejoin: miter; stroke-miterlimit: 4; fill: rgb(0,0,0); fill-rule: nonzero; opacity: 1;" vector-effect="non-scaling-stroke"  transform=" translate(-256, -256)" d="M 256 160 C 272 96.84 332.43 64.59 464 64 C 468.24835520133155 63.983978376212015 472.32733330911145 65.66454242301427 475.3313954430486 68.6686045569514 C 478.33545757698573 71.67266669088852 480.016021623788 75.75164479866844 480 80 L 480 368 C 480 376.8365559972927 472.8365559972927 384 464 384 C 336 384 286.55 409.81 256 448 C 225.63 410 176 384 48 384 C 38.12 384 32 375.95 32 366.07 L 32 80 C 31.983978376212022 75.75164479866844 33.66454242301426 71.67266669088852 36.668604556951394 68.6686045569514 C 39.67266669088852 65.66454242301427 43.75164479866844 63.98397837621202 48 64 C 179.57 64.59 240 96.84 256 160 z M 256 160 L 256 448" stroke-linecap="round" />
</g>
</svg>