<?xml version="1.0" encoding="UTF-8" standalone="no" ?>
<!DOCTYPE svg PUBLIC "-//W3C//DTD SVG 1.1//EN" "http://www.w3.org/Graphics/SVG/1.1/DTD/svg11.dtd">
<svg xmlns="http://www.w3.org/2000/svg" xmlns:xlink="http://www.w3.org/1999/xlink" version="1.1" width="1080" height="1080" viewBox="0 0 1080 1080" xml:space="preserve">
<desc>Created with Fabric.js 5.2.4</desc>
<defs>
</defs>
<rect x="0" y="0" width="100%" height="100%" fill="transparent"></rect>
<g transform="matrix(1 0 0 1 540 540)" id="9e028cd6-5357-465b-9e07-e3e819f28dfd"  >
<rect style="stroke: none; stroke-width: 1; stroke-dasharray: none; stroke-linecap: butt; stroke-dashoffset: 0; stroke-linejoin: miter; stroke-miterlimit: 4; fill: rgb(255,255,255); fill-rule: nonzero; opacity: 1; visibility: hidden;" vector-effect="non-scaling-stroke"  x="-540" y="-540" rx="0" ry="0" width="1080" height="1080" />
</g>
<g transform="matrix(1 0 0 1 540 540)" id="9539a404-2f40-4522-b843-43e84fca2c0d"  >
</g>
<g transform="matrix(0 0 0 0 0 0)"  >
<g style=""   >
</g>
</g>
<g transform="matrix(0 0 0 0 0 0)"  >
<g style=""   >
</g>
</g>
<g transform="matrix(0 0 0 0 0 0)"  >
<g style=""   >
</g>
</g>
<g transform="matrix(0 0 0 0 0 0)"  >
<g style=""   >
</g>
</g>
<g transform="matrix(0 0 0 0 0 0)"  >
<g style=""   >
</g>
</g>
<g transform="matrix(0 0 0 0 0 0)"  >
<g style=""   >
</g>
</g>
<g transform="matrix(1 0 0 1 540 540)"  >
<g style="" vector-effect="non-scaling-stroke"   >
		<g transform="matrix(1 0 0 1 0 0)"  >
<path style="stroke: rgb(0,0,0); stroke-width: 32; stroke-dasharray: none; stroke-linecap: round; stroke-dashoffset: 0; stroke-linejoin: round; stroke-miterlimit: 4; fill: none; fill-rule: nonzero; opacity: 1;" vector-effect="non-scaling-stroke"  transform=" translate(-256, -256)" d="M 32 32 L 32 464 C 32 472.8365559972927 39.16344400270731 480 48 480 L 480 480" stroke-linecap="round" />
</g>
		<g transform="matrix(1 0 0 1 -120 64)"  >
<rect style="stroke: rgb(0,0,0); stroke-width: 32; stroke-dasharray: none; stroke-linecap: round; stroke-dashoffset: 0; stroke-linejoin: round; stroke-miterlimit: 4; fill: none; fill-rule: nonzero; opacity: 1;" vector-effect="non-scaling-stroke"  x="-40" y="-96" rx="20" ry="20" width="80" height="192" />
</g>
		<g transform="matrix(1 0 0 1 24 40)"  >
<rect style="stroke: rgb(0,0,0); stroke-width: 32; stroke-dasharray: none; stroke-linecap: round; stroke-dashoffset: 0; stroke-linejoin: round; stroke-miterlimit: 4; fill: none; fill-rule: nonzero; opacity: 1;" vector-effect="non-scaling-stroke"  x="-40" y="-120" rx="20" ry="20" width="80" height="240" />
</g>
		<g transform="matrix(1 0 0 1 167.64 8)"  >
<rect style="stroke: rgb(0,0,0); stroke-width: 32; stroke-dasharray: none; stroke-linecap: round; stroke-dashoffset: 0; stroke-linejoin: round; stroke-miterlimit: 4; fill: none; fill-rule: nonzero; opacity: 1;" vector-effect="non-scaling-stroke"  x="-40" y="-152" rx="20" ry="20" width="80" height="304" />
</g>
</g>
</g>
<g transform="matrix(0.45 0 0 0.45 490.15 286.14)"  >
<g style="" vector-effect="non-scaling-stroke"   >
		<g transform="matrix(1 0 0 1 0 0)"  >
<rect style="stroke: rgb(0,0,0); stroke-width: 32; stroke-dasharray: none; stroke-linecap: butt; stroke-dashoffset: 0; stroke-linejoin: round; stroke-miterlimit: 4; fill: none; fill-rule: nonzero; opacity: 1;" vector-effect="non-scaling-stroke"  x="-160" y="-224" rx="48" ry="48" width="320" height="448" />
</g>
		<g transform="matrix(1 0 0 1 0 -176)"  >
<path style="stroke: rgb(0,0,0); stroke-width: 32; stroke-dasharray: none; stroke-linecap: round; stroke-dashoffset: 0; stroke-linejoin: round; stroke-miterlimit: 4; fill: none; fill-rule: nonzero; opacity: 1;" vector-effect="non-scaling-stroke"  transform=" translate(-256, -80)" d="M 208 80 L 304 80" stroke-linecap="round" />
</g>
		<g transform="matrix(1 0 0 1 48 104)"  >
<path style="stroke: none; stroke-width: 1; stroke-dasharray: none; stroke-linecap: butt; stroke-dashoffset: 0; stroke-linejoin: miter; stroke-miterlimit: 4; fill: rgb(0,0,0); fill-rule: nonzero; opacity: 1;" vector-effect="non-scaling-stroke"  transform=" translate(-304, -360)" d="M 333.48 284.51 C 325.8493352089596 276.3805636469063 315.1485000858107 271.839605458623 304 272 C 292.4 272 281.91 276.41 274.46 284.43 C 267.00999999999993 292.45 263.26 303.55 264.12 315.43 C 265.83 338.91 283.72 358 304 358 C 324.28 358 342.14 338.91 343.87 315.45 C 344.75 303.67 341.05 292.68 333.48 284.51 z M 371.69 448 L 236.31 448 C 232.7423363396169 448.0569445864169 229.33288752586867 446.52983378584435 227 443.83 C 224.46902344316996 440.79821224028154 223.453499806315 436.78027089446397 224.24 432.90999999999997 C 227.49 415.34999999999997 237.62 400.59999999999997 253.54000000000002 390.25 C 267.68 381.06 285.6 376 304 376 C 322.4 376 340.32 381.06 354.46 390.25 C 370.38 400.6 380.51 415.35 383.76 432.90999999999997 C 384.546500193685 436.78027089446397 383.53097655683 440.79821224028154 381 443.83 C 378.66711247413133 446.52983378584435 375.2576636603831 448.0569445864169 371.69 448 z" stroke-linecap="round" />
</g>
</g>
</g>
</svg>